<svg xmlns="http://www.w3.org/2000/svg" width="160" viewBox="0 0 420 120">
  <path fill="#020202" d="M396 120H24c-13.3 0-24-10.7-24-24V24C0 10.7 10.7 0 24 0h372c13.3 0 24 10.7 24 24v72c0 13.3-10.7 24-24 24z"/>
  <g fill="#FFF">
    <path d="M79.8 58c-.1-8.1 6.6-12 6.9-12.2-3.8-5.5-9.7-6.3-11.7-6.3-4.9-.5-9.7 2.9-12.2 2.9-2.6 0-6.4-2.9-10.6-2.8-5.4.1-10.4 3.2-13.1 8-5.7 9.8-1.4 24.3 4 32.2 2.7 3.9 5.9 8.2 10.1 8.1 4.1-.2 5.6-2.6 10.5-2.6s6.3 2.6 10.5 2.5c4.4-.1 7.1-3.9 9.7-7.8 3.1-4.5 4.4-8.9 4.5-9.1-.1 0-8.5-3.2-8.6-12.9zM71.8 34.3c2.2-2.7 3.7-6.5 3.3-10.2-3.2.1-7.1 2.2-9.4 4.9-2 2.4-3.8 6.2-3.4 9.9 3.6.1 7.2-1.9 9.5-4.6z"/>
  </g>
  <g fill="#FFF">
    <path d="M172.3 89.2h-5.7l-3.1-9.8h-10.8l-3 9.8h-5.5L155 56h6.6l10.7 33.2zm-9.7-13.9l-2.8-8.7c-.3-.9-.9-3-1.7-6.3h-.1c-.3 1.4-.9 3.5-1.6 6.3l-2.8 8.7h9zM199.8 76.9c0 4.1-1.1 7.3-3.3 9.7-2 2.1-4.4 3.2-7.3 3.2-3.2 0-5.4-1.1-6.8-3.4h-.1V99H177V73.1c0-2.6-.1-5.2-.2-7.9h4.7l.3 3.8h.1c1.8-2.9 4.5-4.3 8.1-4.3 2.8 0 5.2 1.1 7.1 3.3 1.8 2.3 2.7 5.3 2.7 8.9zm-5.4.2c0-2.3-.5-4.3-1.6-5.8-1.2-1.6-2.7-2.4-4.6-2.4-1.3 0-2.5.4-3.6 1.3s-1.8 2-2.1 3.4c-.2.7-.2 1.2-.2 1.6v4c0 1.7.5 3.2 1.6 4.4 1.1 1.2 2.5 1.8 4.2 1.8 2 0 3.6-.8 4.7-2.3 1-1.4 1.6-3.5 1.6-6zM227.4 76.9c0 4.1-1.1 7.3-3.3 9.7-2 2.1-4.4 3.2-7.3 3.2-3.2 0-5.4-1.1-6.8-3.4h-.1V99h-5.3V73.1c0-2.6-.1-5.2-.2-7.9h4.7l.3 3.8h.1c1.8-2.9 4.5-4.3 8.1-4.3 2.8 0 5.2 1.1 7.1 3.3 1.7 2.3 2.7 5.3 2.7 8.9zm-5.5.2c0-2.3-.5-4.3-1.6-5.8-1.2-1.6-2.7-2.4-4.6-2.4-1.3 0-2.5.4-3.6 1.3s-1.8 2-2.1 3.4c-.2.7-.2 1.2-.2 1.6v4c0 1.7.5 3.2 1.6 4.4 1.1 1.2 2.5 1.8 4.2 1.8 2 0 3.6-.8 4.7-2.3 1.1-1.4 1.6-3.5 1.6-6zM258.2 79.9c0 2.8-1 5.1-2.9 6.9-2.2 1.9-5.2 2.9-9 2.9-3.6 0-6.4-.7-8.6-2.1l1.2-4.4c2.3 1.4 4.9 2.1 7.7 2.1 2 0 3.6-.5 4.7-1.4 1.1-.9 1.7-2.1 1.7-3.6 0-1.3-.5-2.5-1.4-3.4-.9-.9-2.4-1.8-4.6-2.6-5.8-2.2-8.7-5.3-8.7-9.5 0-2.7 1-5 3.1-6.7 2-1.7 4.7-2.6 8.1-2.6 3 0 5.5.5 7.5 1.6l-1.3 4.3c-1.9-1-4-1.5-6.4-1.5-1.9 0-3.3.5-4.4 1.4-.9.8-1.3 1.8-1.3 3 0 1.3.5 2.4 1.5 3.3.9.8 2.5 1.6 4.8 2.6 2.9 1.2 5 2.5 6.3 4 1.3 1.4 2 3.4 2 5.7zM275.7 69.2h-5.9v11.6c0 3 1 4.4 3.1 4.4 1 0 1.7-.1 2.4-.2l.1 4c-1 .4-2.4.6-4.1.6-2.1 0-3.7-.6-4.9-1.9-1.2-1.3-1.8-3.4-1.8-6.5v-12h-3.5v-4h3.5v-4.4l5.2-1.6v6h5.9v4zM302.2 77c0 3.7-1.1 6.7-3.2 9.1-2.2 2.4-5.1 3.6-8.8 3.6-3.5 0-6.3-1.2-8.4-3.5s-3.1-5.3-3.1-8.8c0-3.7 1.1-6.7 3.2-9.1 2.1-2.4 5-3.5 8.7-3.5 3.5 0 6.3 1.2 8.5 3.5 2.1 2.2 3.1 5.1 3.1 8.7zm-5.5.2c0-2.2-.5-4.1-1.4-5.7-1.1-1.9-2.7-2.9-4.8-2.9-2.1 0-3.8 1-4.9 2.9-1 1.6-1.4 3.5-1.4 5.8 0 2.2.5 4.1 1.4 5.7 1.2 1.9 2.8 2.9 4.8 2.9s3.6-1 4.8-2.9c1-1.7 1.5-3.6 1.5-5.8zM319.5 69.9c-.5-.1-1.1-.1-1.7-.1-1.9 0-3.3.7-4.3 2.1-.9 1.2-1.3 2.8-1.3 4.7v12.6h-5.3V72.8c0-2.8-.1-5.3-.2-7.5h4.6l.2 4.6h.1c.6-1.6 1.4-2.8 2.7-3.8 1.2-.9 2.5-1.3 3.8-1.3.5 0 .9 0 1.3.1.1-.1.1 5 .1 5zM343.3 76.1c0 1-.1 1.8-.2 2.4h-16c.1 2.4.8 4.2 2.3 5.4 1.3 1.1 3.1 1.7 5.2 1.7 2.4 0 4.5-.4 6.5-1.1l.8 3.7c-2.3 1-4.9 1.5-8 1.5-3.7 0-6.6-1.1-8.7-3.3-2.1-2.2-3.2-5.1-3.2-8.8 0-3.6 1-6.6 3-9 2.1-2.6 4.9-3.8 8.4-3.8s6.1 1.3 7.8 3.8c1.4 2 2.1 4.5 2.1 7.5zm-5.1-1.4c0-1.6-.3-2.9-1-4.1-.9-1.5-2.3-2.2-4.2-2.2-1.7 0-3.2.7-4.2 2.2-.9 1.2-1.4 2.5-1.6 4.1h11z"/>
  </g>
  <g fill="#FFF">
    <path d="M160.9 35.5c0 2.9-.9 5.1-2.6 6.6-1.6 1.4-3.9 2.1-6.9 2.1-1.5 0-2.8-.1-3.8-.2V28c1.4-.2 2.9-.3 4.5-.3 2.9 0 5 .6 6.5 1.9 1.5 1.3 2.3 3.3 2.3 5.9zm-2.8.1c0-1.9-.5-3.4-1.5-4.4-1-1-2.5-1.5-4.4-1.5-.8 0-1.5.1-2.1.2v12.2c.3 0 .9.1 1.8.1 2 0 3.5-.6 4.6-1.7s1.6-2.8 1.6-4.9zM175.5 38.1c0 1.8-.5 3.3-1.5 4.5-1.1 1.2-2.5 1.8-4.3 1.8-1.7 0-3.1-.6-4.1-1.7-1-1.1-1.5-2.6-1.5-4.3 0-1.8.5-3.3 1.6-4.5 1.1-1.2 2.5-1.7 4.3-1.7 1.7 0 3.1.6 4.2 1.7.8 1 1.3 2.4 1.3 4.2zm-2.7.1c0-1.1-.2-2-.7-2.8-.5-.9-1.3-1.4-2.3-1.4-1.1 0-1.8.5-2.4 1.4-.5.8-.7 1.7-.7 2.8 0 1.1.2 2 .7 2.8.6.9 1.4 1.4 2.4 1.4s1.8-.5 2.3-1.4c.4-.8.7-1.7.7-2.8zM195.1 32.3l-3.7 11.8H189l-1.5-5.1c-.4-1.3-.7-2.5-.9-3.8-.2 1.3-.5 2.6-.9 3.8l-1.6 5.1h-2.4l-3.5-11.8h2.7l1.3 5.6c.3 1.3.6 2.6.8 3.8.2-1 .5-2.2 1-3.8l1.7-5.6h2.1l1.6 5.5c.4 1.3.7 2.6.9 3.9h.1c.2-1.2.4-2.5.8-3.9l1.4-5.5h2.5zM208.7 44.1H206v-6.7c0-2.1-.8-3.1-2.4-3.1-.8 0-1.4.3-1.9.9-.5.6-.7 1.2-.7 2v7h-2.6v-8.4c0-1 0-2.2-.1-3.4h2.3l.1 1.8h.1c.3-.6.8-1 1.4-1.4.7-.4 1.5-.7 2.4-.7 1.1 0 2 .4 2.7 1.1.9.9 1.4 2.2 1.4 3.9v7zM215.9 44.1h-2.6V26.9h2.6v17.2zM231.3 38.1c0 1.8-.5 3.3-1.5 4.5-1.1 1.2-2.5 1.8-4.3 1.8-1.7 0-3.1-.6-4.1-1.7-1-1.1-1.5-2.6-1.5-4.3 0-1.8.5-3.3 1.6-4.5 1.1-1.2 2.5-1.7 4.3-1.7 1.7 0 3.1.6 4.2 1.7.8 1 1.3 2.4 1.3 4.2zm-2.8.1c0-1.1-.2-2-.7-2.8-.5-.9-1.3-1.4-2.3-1.4-1.1 0-1.9.5-2.4 1.4-.5.8-.7 1.7-.7 2.8 0 1.1.2 2 .7 2.8.6.9 1.4 1.4 2.4 1.4s1.8-.5 2.3-1.4c.5-.8.7-1.7.7-2.8zM243.9 44.1h-2.3l-.2-1.4h-.1c-.8 1.1-1.9 1.6-3.4 1.6-1.1 0-2-.4-2.7-1.1-.6-.6-.9-1.4-.9-2.4 0-1.4.6-2.5 1.8-3.3 1.2-.8 2.9-1.1 5.1-1.1v-.2c0-1.5-.8-2.3-2.4-2.3-1.2 0-2.2.3-3.1.9l-.5-1.7c1.1-.7 2.4-1 4-1 3.1 0 4.6 1.6 4.6 4.9v4.3c-.1 1.1 0 2.1.1 2.8zm-2.7-4.1v-1.8c-2.9 0-4.3.7-4.3 2.4 0 .6.2 1.1.5 1.4.3.3.8.5 1.3.5.6 0 1.1-.2 1.6-.5.5-.4.8-.8.9-1.4V40zM258.8 44.1h-2.3l-.1-1.9h-.1c-.7 1.4-2 2.2-3.8 2.2-1.4 0-2.6-.6-3.5-1.7s-1.4-2.6-1.4-4.3c0-1.9.5-3.4 1.5-4.6 1-1.1 2.2-1.6 3.6-1.6 1.6 0 2.7.5 3.3 1.6V27h2.6v14c.1 1 .1 2.1.2 3.1zm-2.7-5v-2c0-.3 0-.6-.1-.8-.1-.6-.5-1.2-.9-1.6-.5-.4-1.1-.6-1.7-.6-1 0-1.7.4-2.3 1.2-.6.8-.8 1.8-.8 3s.3 2.1.8 2.8c.6.8 1.3 1.2 2.3 1.2.9 0 1.5-.3 2.1-1 .3-.6.6-1.3.6-2.2zM281.1 38.1c0 1.8-.5 3.3-1.5 4.5-1.1 1.2-2.5 1.8-4.3 1.8-1.7 0-3.1-.6-4.1-1.7-1-1.1-1.5-2.6-1.5-4.3 0-1.8.5-3.3 1.6-4.5 1.1-1.2 2.5-1.7 4.3-1.7 1.7 0 3.1.6 4.2 1.7.8 1 1.3 2.4 1.3 4.2zm-2.7.1c0-1.1-.2-2-.7-2.8-.6-.9-1.3-1.4-2.3-1.4-1 0-1.8.5-2.4 1.4-.5.8-.7 1.7-.7 2.8 0 1.1.2 2 .7 2.8.6.9 1.4 1.4 2.4 1.4s1.8-.5 2.3-1.4c.5-.8.7-1.7.7-2.8zM295.2 44.1h-2.6v-6.7c0-2.1-.8-3.1-2.4-3.1-.8 0-1.4.3-1.9.9-.5.6-.7 1.2-.7 2v7H285v-8.4c0-1 0-2.2-.1-3.4h2.3l.1 1.8h.1c.3-.6.8-1 1.4-1.4.7-.4 1.5-.7 2.4-.7 1.1 0 2 .4 2.7 1.1.9.9 1.4 2.2 1.4 3.9v7zM312.8 34.3h-2.9V40c0 1.5.5 2.2 1.5 2.2.5 0 .9 0 1.2-.1l.1 2c-.5.2-1.2.3-2 .3-1 0-1.8-.3-2.4-.9-.6-.6-.9-1.7-.9-3.2v-5.9h-1.7v-2h1.7v-2.2l2.6-.8v2.9h2.9l-.1 2zM326.6 44.1H324v-6.7c0-2.1-.8-3.2-2.4-3.2-1.2 0-2 .6-2.5 1.8-.1.3-.1.6-.1.9V44h-2.6V26.9h2.6V34c.8-1.3 2-1.9 3.5-1.9 1.1 0 2 .4 2.7 1.1.9.9 1.3 2.2 1.3 3.9.1 0 .1 7 .1 7zM340.9 37.6c0 .5 0 .9-.1 1.2H333c0 1.2.4 2 1.1 2.7.7.5 1.5.8 2.6.8 1.2 0 2.2-.2 3.2-.6l.4 1.8c-1.1.5-2.4.7-3.9.7-1.8 0-3.3-.5-4.3-1.6s-1.6-2.5-1.6-4.3c0-1.8.5-3.3 1.5-4.4 1-1.3 2.4-1.9 4.1-1.9 1.7 0 3 .6 3.8 1.9.7 1 1 2.3 1 3.7zm-2.5-.6c0-.8-.2-1.4-.5-2-.5-.7-1.1-1.1-2.1-1.1-.9 0-1.5.4-2.1 1.1-.4.6-.7 1.2-.8 2h5.5z"/>
  </g>
</svg>
