<svg version="1.1" id="Layer_1" xmlns="http://www.w3.org/2000/svg" xmlns:xlink="http://www.w3.org/1999/xlink" x="0" y="0" width="160" viewBox="0 0 420 120" xml:space="preserve">
  <style>
    .st1{fill:#020202}.st1,.st2{display:inline}.st3,.st5{fill:#fff}.st5{display:inline}.st6{font-family:&apos;SegoeWP&apos;}
  </style>
  <path d="M396 120H24c-13.3 0-24-10.7-24-24V24C0 10.7 10.7 0 24 0h372c13.3 0 24 10.7 24 24v72c0 13.3-10.7 24-24 24z" fill="#020202"/>
  <path class="st3" d="M146.3 29.6c0 2.6-.8 4.7-2.3 6.2-1.8 1.8-4 2.8-6.9 2.8-2.7 0-5-.9-6.9-2.8-1.9-1.9-2.8-4.2-2.8-6.9 0-2.8.9-5.1 2.8-6.9 1.9-1.9 4.2-2.8 6.9-2.8 1.3 0 2.6.3 3.8.8 1.2.5 2.2 1.2 2.9 2.1l-1.6 1.6c-1.2-1.5-2.9-2.2-5.1-2.2-2 0-3.7.7-5.1 2.1-1.4 1.4-2.2 3.2-2.2 5.4s.7 4 2.2 5.4c1.4 1.4 3.1 2.1 5.1 2.1 2.1 0 3.8-.7 5.2-2.1.9-.9 1.4-2.2 1.6-3.8h-6.8v-2.2h9c.2.3.2.7.2 1.2"/>
  <path class="st3" d="M146.3 29.6h-.3c0 2.5-.7 4.5-2.2 6-1.7 1.8-3.9 2.7-6.6 2.7-2.6 0-4.8-.9-6.6-2.7-1.8-1.8-2.7-4-2.7-6.7s.9-4.9 2.7-6.7c1.8-1.8 4-2.7 6.6-2.7 1.3 0 2.5.3 3.7.8 1.2.5 2.1 1.2 2.8 2l.2-.2-.2-.2-1.6 1.6.2.2.2-.2c-1.3-1.5-3.1-2.3-5.3-2.3-2 0-3.8.7-5.3 2.2-1.5 1.4-2.2 3.3-2.2 5.6s.7 4.2 2.2 5.6c1.5 1.4 3.3 2.2 5.3 2.2 2.2 0 4-.7 5.4-2.2 1-1 1.5-2.3 1.7-4v-.3h-6.8v-1.6h8.7v-.3l-.3.1c.1.5.1.9.1 1.4h.6c0-.5 0-1-.1-1.5v-.3h-9.6V31h7.1v-.3h-.3c-.1 1.6-.6 2.7-1.5 3.6-1.3 1.3-3 2-5 2-1.9 0-3.5-.7-4.9-2-1.4-1.3-2.1-3-2.1-5.2 0-2.1.7-3.8 2.1-5.2 1.4-1.3 3-2 4.9-2 2.1 0 3.7.7 4.9 2.1l.2.3 1.9-1.9.2-.2-.2-.2c-.8-.9-1.8-1.6-3-2.2-1.3-.5-2.6-.8-4-.8-2.8 0-5.2 1-7.1 2.9-1.9 1.9-2.9 4.3-2.9 7.2 0 2.8 1 5.2 2.9 7.2 1.9 1.9 4.3 2.9 7.1 2.9 2.9 0 5.3-1 7.1-2.9l-.2-.2.2.2c1.6-1.6 2.4-3.8 2.4-6.5h-.4M160.6 21.8h-8.5v5.9h7.7V30h-7.7v5.9h8.5v2.3h-10.9V19.5h10.9v2.3"/>
  <path class="st3" d="M160.6 21.8v-.3h-8.8V28h7.7v1.6h-7.7v6.6h8.5v1.7H150V19.8h10.3v2h.3v-.3.3h.3v-2.6h-11.5v19.3h11.5v-2.9h-8.5v-5.3h7.7v-2.9h-7.7v-5.3h8.5v-.3h-.3M170.7 38.2h-2.4V21.8h-5.2v-2.3H176v2.3h-5.3v16.4"/>
  <path class="st3" d="M170.7 38.2v-.3h-2V21.5h-5.3v-1.7h12.3v1.7h-5.3v16.7h.3v-.3.3h.4V22.1h5.2v-2.9h-13.5v2.9h5.2v16.4h3.1v-.3h-.4M185.2 19.5h2.4v18.7h-2.4z"/>
  <path class="st3" d="M185.2 38.2h.4V19.8h1.7v18.1h-2.1v.3h.4-.4v.3h2.8V19.2h-3.1v19.3h.3v-.3M198.3 38.2h-2.4V21.8h-5.2v-2.3h12.8v2.3h-5.2v16.4"/>
  <path class="st3" d="M198.3 38.2v-.3h-2.1V21.5H191v-1.7h12.2v1.7H198v16.7h.3v-.3.3h.3V22.1h5.2v-2.9h-13.4v2.9h5.2v16.4h3v-.3h-.3M227.8 35.8c-1.8 1.9-4.1 2.8-6.8 2.8s-5-.9-6.8-2.8c-1.8-1.9-2.8-4.2-2.8-6.9s.9-5 2.8-6.9c1.8-1.9 4.1-2.8 6.8-2.8s5 .9 6.8 2.8c1.8 1.9 2.8 4.2 2.8 6.9-.1 2.7-1 5-2.8 6.9m-11.9-1.6c1.4 1.4 3.1 2.1 5.1 2.1 2 0 3.7-.7 5.1-2.1 1.4-1.4 2.1-3.2 2.1-5.4s-.7-4-2.1-5.4c-1.4-1.4-3.1-2.1-5.1-2.1-2 0-3.7.7-5.1 2.1-1.4 1.4-2.1 3.2-2.1 5.4s.7 4 2.1 5.4z"/>
  <path class="st3" d="M227.8 35.8l-.2-.2c-1.8 1.8-4 2.7-6.6 2.7-2.7 0-4.8-.9-6.6-2.7-1.8-1.8-2.7-4-2.7-6.7s.9-4.9 2.7-6.7c1.8-1.8 4-2.7 6.6-2.7 2.6 0 4.8.9 6.6 2.7 1.8 1.8 2.7 4.1 2.7 6.7 0 2.7-.9 4.9-2.7 6.7l.4.4c1.9-1.9 2.8-4.3 2.8-7.1s-1-5.2-2.8-7.1c-1.9-2-4.3-2.9-7.1-2.9s-5.2 1-7.1 2.9c-1.9 1.9-2.8 4.3-2.8 7.1s.9 5.2 2.8 7.1c1.9 1.9 4.3 2.9 7.1 2.9s5.2-1 7.1-2.9l-.2-.2m-11.9-1.6l-.2.2c1.4 1.5 3.2 2.2 5.3 2.2 2.1 0 3.9-.7 5.3-2.2 1.4-1.5 2.2-3.3 2.2-5.6 0-2.2-.7-4.1-2.2-5.6-1.4-1.5-3.2-2.2-5.3-2.2-2.1 0-3.9.7-5.3 2.2-1.4 1.5-2.2 3.3-2.2 5.6 0 2.2.7 4.1 2.2 5.6l.4-.4c-1.3-1.3-2-3-2-5.1 0-2.1.7-3.8 2-5.1 1.3-1.3 2.9-2 4.9-2 1.9 0 3.5.7 4.9 2 1.3 1.3 2 3 2 5.1 0 2.1-.7 3.8-2 5.1-1.3 1.3-2.9 2-4.9 2-1.9 0-3.5-.7-4.9-2l-.2.2zM233.9 38.2V19.5h2.9l9.1 14.5h.1l-.1-3.6V19.5h2.4v18.7h-2.5l-9.5-15.3h-.1l.1 3.6v11.7h-2.4"/>
  <path class="st3" d="M233.9 38.2h.3V19.8h2.4l9.1 14.5h.6l-.1-3.9V19.8h1.8v18.1h-2l-9.5-15.3h-.6l.1 3.9v11.4h-2.1v.3h.3-.3v.3h2.7v-12l-.1-3.6h-.3v.4h.1v-.4l-.3.2 9.6 15.4h3V19.2h-3v11.2l.1 3.6h.3v-.3h-.1v.3l.2-.1-9.1-14.7h-3.4v19.3h.3v-.3M210.7 65.4c-7.3 0-13.3 5.6-13.3 13.2s6 13.2 13.3 13.2c7.3 0 13.3-5.6 13.3-13.2s-5.9-13.2-13.3-13.2m0 21.2c-4 0-7.5-3.3-7.5-8 0-4.8 3.5-8 7.5-8s7.5 3.3 7.5 8-3.4 8-7.5 8zm-28.9-21.2c-7.3 0-13.3 5.6-13.3 13.2s6 13.2 13.3 13.2c7.3 0 13.3-5.6 13.3-13.2s-6-13.2-13.3-13.2zm0 21.2c-4 0-7.5-3.3-7.5-8 0-4.8 3.5-8 7.5-8s7.5 3.3 7.5 8c-.1 4.7-3.5 8-7.5 8zm-34.5-17.1v5.6h13.4c-.4 3.2-1.5 5.5-3.1 7.1-2 2-5 4.1-10.4 4.1-8.3 0-14.7-6.7-14.7-14.9 0-8.3 6.5-14.9 14.7-14.9 4.5 0 7.7 1.8 10.1 4l4-4c-3.4-3.2-7.8-5.7-14.1-5.7-11.3 0-20.9 9.2-20.9 20.6s9.5 20.5 20.9 20.5c6.1 0 10.7-2 14.3-5.8 3.7-3.7 4.9-8.9 4.9-13.1 0-1.3-.1-2.5-.3-3.5h-18.8zm141 4.3c-1.1-3-4.5-8.4-11.3-8.4-6.8 0-12.5 5.4-12.5 13.2 0 7.4 5.6 13.2 13.1 13.2 6.1 0 9.6-3.7 11-5.9l-4.5-3c-1.5 2.2-3.6 3.7-6.5 3.7-3 0-5.1-1.4-6.4-4l17.7-7.3-.6-1.5zm-18.1 4.4c-.1-5.1 4-7.7 6.9-7.7 2.3 0 4.3 1.2 4.9 2.8l-11.8 4.9zm-14.4 12.9h5.8V52.2h-5.8v38.9zm-9.5-22.7h-.2c-1.3-1.6-3.8-3-7-3-6.6 0-12.7 5.8-12.7 13.3 0 7.4 6.1 13.2 12.7 13.2 3.2 0 5.7-1.4 7-3h.2v1.9c0 5.1-2.7 7.8-7.1 7.8-3.6 0-5.8-2.6-6.7-4.7l-5.1 2.1c1.5 3.5 5.3 7.8 11.7 7.8 6.8 0 12.6-4 12.6-13.8V66.2h-5.5v2.2zm-6.7 18.2c-4 0-7.4-3.4-7.4-8 0-4.7 3.4-8.1 7.4-8.1s7.1 3.4 7.1 8.1c0 4.7-3.1 8-7.1 8zm75.9-34.4h-13.9v38.9h5.8V76.3h8.1c6.4 0 12.8-4.7 12.8-12.1s-6.4-12-12.8-12zm.1 18.7h-8.3V57.6h8.3c4.3 0 6.8 3.6 6.8 6.7.1 3-2.4 6.6-6.8 6.6zm35.9-5.6c-4.2 0-8.6 1.9-10.4 6l5.2 2.1c1.1-2.1 3.2-2.9 5.3-2.9 3 0 6.1 1.8 6.1 5v.5c-1.1-.6-3.3-1.5-6.1-1.5-5.6 0-11.2 3.1-11.2 8.8 0 5.2 4.6 8.6 9.7 8.6 3.9 0 6.1-1.8 7.4-3.8h.2v3h5.6v-15c0-6.9-5.1-10.8-11.8-10.8zm-.7 21.3c-1.9 0-4.6-.9-4.6-3.3 0-3 3.3-4.2 6.2-4.2 2.6 0 3.8.6 5.3 1.3-.4 3.7-3.5 6.2-6.9 6.2zm32.9-20.4L377.1 83h-.2L370 66.2h-6.3l10.4 23.6-5.9 13.1h6.1l16-36.7h-6.6zm-52.2 24.9h5.8V52.2h-5.8v38.9z"/>
  <path d="M31.2 21.2c-.9 1-1.4 2.4-1.4 4.4v68.7c0 1.9.5 3.4 1.4 4.4l.2.2L70 60.4v-.9L31.5 21l-.3.2" fill="#5bc8f3"/>
  <defs>
    <path id="SVGID_1_" d="M82.8 73.2L70 60.4v-.9l12.8-12.8 15.5 8.8c4.3 2.5 4.3 6.5 0 9l-15.2 8.6-.3.1"/>
  </defs>
  <clipPath id="SVGID_2_">
    <use xlink:href="#SVGID_1_" overflow="visible"/>
  </clipPath>
  <linearGradient id="SVGID_3_" gradientUnits="userSpaceOnUse" x1="137.2923" y1="90.2663" x2="140.4034" y2="90.2663" gradientTransform="matrix(-24.1769 0 0 24.1769 3414.7935 -2122.4104)">
    <stop offset="0" stop-color="#fddf00"/>
    <stop offset=".3987" stop-color="#fbbd0e"/>
    <stop offset=".7744" stop-color="#f9a318"/>
    <stop offset="1" stop-color="#f89a1c"/>
  </linearGradient>
  <path clip-path="url(#SVGID_2_)" fill="url(#SVGID_3_)" d="M70 46.7h32.7v26.6H70z"/>
  <g>
    <defs>
      <path id="SVGID_4_" d="M83.1 73.1L70 59.9 31.2 98.7c1.4 1.5 3.8 1.7 6.5.2l45.4-25.8"/>
    </defs>
    <clipPath id="SVGID_5_">
      <use xlink:href="#SVGID_4_" overflow="visible"/>
    </clipPath>
    <linearGradient id="SVGID_6_" gradientUnits="userSpaceOnUse" x1="136.1406" y1="88.2121" x2="139.2518" y2="88.2121" gradientTransform="scale(-32.1584 32.1584) rotate(45 171.00409256 -121.97609678)">
      <stop offset="0" stop-color="#ee4447"/>
      <stop offset="1" stop-color="#c6196d"/>
    </linearGradient>
    <path clip-path="url(#SVGID_5_)" fill="url(#SVGID_6_)" d="M103.3 80.2l-46.1 46.1L11 80.2 57.2 34z"/>
  </g>
  <g>
    <defs>
      <path id="SVGID_7_" d="M83.1 46.8L37.7 21c-2.7-1.5-5-1.3-6.5.2L70 59.9l13.1-13.1"/>
    </defs>
    <clipPath id="SVGID_8_">
      <use xlink:href="#SVGID_7_" overflow="visible"/>
    </clipPath>
    <linearGradient id="SVGID_9_" gradientUnits="userSpaceOnUse" x1="128.7632" y1="87.7651" x2="131.8743" y2="87.7651" gradientTransform="scale(26.2567 -26.2567) rotate(-45 -40.81362531 199.51214052)">
      <stop offset="0" stop-color="#269e6f"/>
      <stop offset=".05101573" stop-color="#2ba06f"/>
      <stop offset=".4664" stop-color="#53b26b"/>
      <stop offset=".7971" stop-color="#6bbd69"/>
      <stop offset="1" stop-color="#74c168"/>
    </linearGradient>
    <path clip-path="url(#SVGID_8_)" fill="url(#SVGID_9_)" d="M57.2-6.4l46.1 46.1-46.1 46.2L11 39.7z"/>
  </g>
</svg>
