<svg width="32" height="32" viewBox="0 0 32 34" fill="none" xmlns="http://www.w3.org/2000/svg">
    <path fill-rule="evenodd" clip-rule="evenodd"
        d="M6 0.673279H26C29.3137 0.673279 32 3.35957 32 6.67328V27.6211C32 30.9348 29.3137 33.6211 26 33.6211H6C2.68629 33.6211 0 30.9348 0 27.6211V6.67328C0 3.35957 2.68629 0.673279 6 0.673279ZM24.0312 15.8641C24.1472 15.4991 24.2318 15.1283 24.2455 14.743C24.253 14.5281 24.2568 14.4211 24.21 14.39C24.1635 14.359 24.0669 14.4033 23.874 14.4913C20.0532 16.2359 16.2321 17.9802 12.4113 19.7244C12.0774 19.8769 11.7437 20.0298 11.41 20.1827C10.4558 20.6199 9.50167 21.0572 8.54308 21.4838C8.2736 21.6037 8.34769 21.6792 8.51966 21.8048C8.7393 21.9651 8.97799 22.0682 9.24475 22.1143L9.46434 22.1522C11.4964 22.5023 13.5285 22.8525 15.5543 23.2401C15.7736 23.282 15.8416 23.3748 15.8785 23.5788C16.2291 25.5179 16.5289 27.4644 16.7163 29.4281C16.7578 29.8645 16.8987 30.0556 17.2018 30.1262C17.5183 30.2001 17.7563 30.0705 17.9617 29.7039C20.4293 25.2963 22.4961 20.7031 24.0312 15.8641ZM15.2868 4.82464C15.2504 4.45069 15.0938 4.22682 14.7963 4.16297C14.5057 4.10068 14.2416 4.23711 14.0689 4.5455C11.6396 8.88306 9.59865 13.4017 8.06124 18.1546C7.90958 18.6235 7.77552 19.0959 7.75385 19.5939C7.74738 19.7875 7.74414 19.8833 7.78591 19.9109C7.82685 19.9379 7.91101 19.8994 8.07772 19.8233L10.623 18.6625C13.8922 17.1716 17.1614 15.6806 20.4305 14.1896C20.7118 14.0613 20.993 13.9327 21.2742 13.804C22.0129 13.466 22.7516 13.128 23.493 12.7962C23.6896 12.7083 23.6848 12.641 23.5287 12.5195C23.2972 12.3394 23.0415 12.2259 22.7548 12.1768C20.6488 11.8159 18.5431 11.4539 16.4445 11.0491C16.2657 11.0146 16.1774 10.9604 16.141 10.7638C15.7757 8.7961 15.4808 6.81813 15.2868 4.82464Z"
        fill="white" />
</svg>